# xmcd
#
# Track frame offsets: 
#        150
#        21871
#        43392
#        64931
#        85062
#        106719
#        132371
#        156390
#        172240
#        194852
#
# Disc length: 2764 seconds
#
# Revision: 0
# Processed by: cddbd v1.5.2PL0 Copyright (c) Steve Scherf et al.
# Submitted via: ExactAudioCopy v1.3
#
DISCID=930aca0a
DTITLE=JP Williams Blues Band - Everblue
DYEAR=2019
DGENRE=Blues
TTITLE0=Cigar Box Boogie
TTITLE1=Everblue
TTITLE2=Mean Old Used Car Blues
TTITLE3=Island Breeze (For George Wesley)
TTITLE4=Bluesman Tonight
TTITLE5=Thank You (Dana's Song)
TTITLE6=More Soul Than I Can Control
TTITLE7=Leave My Poor Heart Alone
TTITLE8=It's a Sunny Day
TTITLE9=Hybrid CBG Blues
EXTD=
EXTT0=
EXTT1=
EXTT2=
EXTT3=
EXTT4=
EXTT5=
EXTT6=
EXTT7=
EXTT8=
EXTT9=
PLAYORDER=
